<svg width="184" height="52" viewBox="0 0 184 52" fill="none" xmlns="http://www.w3.org/2000/svg">
<path fill-rule="evenodd" clip-rule="evenodd" d="M157 51C170.807 51 182 39.8071 182 26C182 12.1929 170.807 1 157 1C143.193 1 132 12.1929 132 26C132 39.8071 143.193 51 157 51ZM151.976 36.3428C151.891 36.2584 151.812 36.1706 151.739 36.0798L141.791 26.1321C140.501 24.8416 140.501 22.7494 141.791 21.459C143.082 20.1686 145.174 20.1686 146.464 21.459L154.325 29.32L167.952 15.6933C169.243 14.4029 171.335 14.4029 172.625 15.6933C173.916 16.9837 173.916 19.0759 172.625 20.3664L156.649 36.3428C155.358 37.6333 153.266 37.6333 151.976 36.3428Z" fill="#121212"/>
<path d="M14.056 50V10H1.70398V2.32H34.984V10H22.824V50H14.056ZM59.286 50.768C55.7873 50.768 52.5233 50.1493 49.494 48.912C46.4647 47.6747 43.8193 45.9467 41.558 43.728C39.2967 41.5093 37.526 38.9067 36.246 35.92C35.0087 32.8907 34.39 29.6267 34.39 26.128C34.39 22.5867 35.0087 19.3227 36.246 16.336C37.4833 13.3493 39.2327 10.7467 41.494 8.528C43.7553 6.30933 46.4007 4.60266 49.43 3.408C52.4593 2.17066 55.7447 1.552 59.286 1.552C62.8273 1.552 66.1127 2.17066 69.142 3.408C72.1713 4.64533 74.8167 6.37333 77.078 8.592C79.3393 10.768 81.0887 13.3493 82.326 16.336C83.606 19.3227 84.246 22.5867 84.246 26.128C84.246 29.6267 83.606 32.8907 82.326 35.92C81.046 38.9067 79.2753 41.5093 77.014 43.728C74.7527 45.9467 72.1073 47.6747 69.078 48.912C66.0913 50.1493 62.8273 50.768 59.286 50.768ZM59.286 42.832C61.6327 42.832 63.7873 42.4267 65.75 41.616C67.7127 40.7627 69.4193 39.5893 70.87 38.096C72.3633 36.6027 73.494 34.832 74.262 32.784C75.0727 30.736 75.478 28.5173 75.478 26.128C75.478 23.7387 75.0727 21.5413 74.262 19.536C73.494 17.488 72.3633 15.7173 70.87 14.224C69.4193 12.688 67.7127 11.5147 65.75 10.704C63.7873 9.89333 61.6327 9.488 59.286 9.488C56.982 9.488 54.8487 9.89333 52.886 10.704C50.9233 11.5147 49.1953 12.688 47.702 14.224C46.2513 15.7173 45.1207 17.488 44.31 19.536C43.4993 21.5413 43.094 23.7387 43.094 26.128C43.094 28.5173 43.4993 30.736 44.31 32.784C45.1207 34.832 46.2513 36.6027 47.702 38.096C49.1953 39.5893 50.9233 40.7627 52.886 41.616C54.8487 42.4267 56.982 42.832 59.286 42.832ZM89.4255 50V2.32H104.977C110.012 2.32 114.385 3.344 118.097 5.392C121.852 7.39733 124.753 10.192 126.801 13.776C128.85 17.3173 129.874 21.4347 129.874 26.128C129.874 30.7787 128.85 34.9173 126.801 38.544C124.753 42.128 121.852 44.944 118.097 46.992C114.385 48.9973 110.012 50 104.977 50H89.4255ZM98.1295 42.32H105.169C108.412 42.32 111.207 41.6587 113.553 40.336C115.943 38.9707 117.799 37.0933 119.121 34.704C120.444 32.272 121.105 29.4133 121.105 26.128C121.105 22.8 120.444 19.9413 119.121 17.552C117.799 15.1627 115.943 13.3067 113.553 11.984C111.207 10.6613 108.412 10 105.169 10H98.1295V42.32Z" fill="#121212"/>
</svg>
