<svg width="733" height="615" viewBox="0 0 733 615" fill="none" xmlns="http://www.w3.org/2000/svg">
<g clip-path="url(#clip0_302_2)">
<path d="M322.091 232.107L486.005 91.9041L486.765 93.9621L323.429 233.671L322.091 232.107Z" fill="#2F2E41"/>
<path d="M499.947 123.635C513.214 123.635 523.969 112.88 523.969 99.6126C523.969 86.3455 513.214 75.5903 499.947 75.5903C486.679 75.5903 475.924 86.3455 475.924 99.6126C475.924 112.88 486.679 123.635 499.947 123.635Z" fill="#B331BE"/>
<path d="M702.416 152.806H483.078C482.138 152.807 481.207 152.623 480.338 152.264C479.469 151.905 478.679 151.378 478.014 150.714C477.349 150.05 476.821 149.261 476.461 148.392C476.101 147.524 475.916 146.593 475.916 145.653C475.916 144.713 476.101 143.782 476.461 142.913C476.821 142.045 477.349 141.256 478.014 140.592C478.679 139.927 479.469 139.401 480.338 139.042C481.207 138.683 482.138 138.498 483.078 138.5H702.416C703.356 138.498 704.287 138.683 705.156 139.042C706.025 139.401 706.814 139.927 707.48 140.592C708.145 141.256 708.672 142.045 709.032 142.913C709.392 143.782 709.578 144.713 709.578 145.653C709.578 146.593 709.392 147.524 709.032 148.392C708.672 149.261 708.145 150.05 707.48 150.714C706.814 151.378 706.025 151.905 705.156 152.264C704.287 152.623 703.356 152.807 702.416 152.806Z" fill="#B331BE"/>
<path d="M702.416 181.073H483.078C481.181 181.073 479.361 180.319 478.02 178.977C476.678 177.636 475.924 175.816 475.924 173.919C475.924 172.022 476.678 170.202 478.02 168.86C479.361 167.519 481.181 166.765 483.078 166.765H702.416C704.313 166.765 706.133 167.519 707.474 168.86C708.816 170.202 709.57 172.022 709.57 173.919C709.57 175.816 708.816 177.636 707.474 178.977C706.133 180.319 704.313 181.073 702.416 181.073V181.073Z" fill="#B331BE"/>
<path d="M578.156 209.339H483.078C481.181 209.339 479.361 208.585 478.02 207.244C476.678 205.902 475.924 204.082 475.924 202.185C475.924 200.288 476.678 198.468 478.02 197.127C479.361 195.785 481.181 195.031 483.078 195.031H578.156C580.053 195.031 581.873 195.785 583.214 197.127C584.556 198.468 585.31 200.288 585.31 202.185C585.31 204.082 584.556 205.902 583.214 207.244C581.873 208.585 580.053 209.339 578.156 209.339V209.339Z" fill="#B331BE"/>
<path d="M540.434 298.266C549.528 298.266 556.9 290.894 556.9 281.8C556.9 272.707 549.528 265.335 540.434 265.335C531.341 265.335 523.969 272.707 523.969 281.8C523.969 290.894 531.341 298.266 540.434 298.266Z" fill="#3F3D56"/>
<path d="M679.212 318.261H528.872C528.228 318.261 527.589 318.135 526.994 317.889C526.398 317.643 525.857 317.282 525.401 316.827C524.944 316.372 524.583 315.831 524.336 315.235C524.089 314.64 523.962 314.002 523.962 313.357C523.962 312.713 524.089 312.075 524.336 311.479C524.583 310.884 524.944 310.343 525.401 309.888C525.857 309.433 526.398 309.072 526.994 308.826C527.589 308.58 528.228 308.453 528.872 308.454H679.212C679.856 308.453 680.495 308.58 681.09 308.826C681.686 309.072 682.227 309.433 682.683 309.888C683.139 310.343 683.501 310.884 683.748 311.479C683.995 312.075 684.122 312.713 684.122 313.357C684.122 314.002 683.995 314.64 683.748 315.235C683.501 315.831 683.139 316.372 682.683 316.827C682.227 317.282 681.686 317.643 681.09 317.889C680.495 318.135 679.856 318.261 679.212 318.261V318.261Z" fill="#3F3D56"/>
<path d="M566.212 337.635H528.872C527.573 337.633 526.327 337.116 525.409 336.196C524.491 335.277 523.976 334.031 523.976 332.732C523.976 331.432 524.491 330.186 525.409 329.267C526.327 328.348 527.573 327.83 528.872 327.828H566.212C567.511 327.83 568.756 328.348 569.674 329.267C570.592 330.186 571.108 331.432 571.108 332.732C571.108 334.031 570.592 335.277 569.674 336.196C568.756 337.116 567.511 337.633 566.212 337.635V337.635Z" fill="#3F3D56"/>
<path d="M487.883 462.924C496.977 462.924 504.348 455.552 504.348 446.459C504.348 437.365 496.977 429.993 487.883 429.993C478.789 429.993 471.417 437.365 471.417 446.459C471.417 455.552 478.789 462.924 487.883 462.924Z" fill="#3F3D56"/>
<path d="M626.661 482.919H476.321C475.677 482.92 475.038 482.794 474.443 482.548C473.847 482.302 473.306 481.941 472.85 481.485C472.394 481.03 472.032 480.489 471.785 479.894C471.538 479.298 471.411 478.66 471.411 478.016C471.411 477.371 471.538 476.733 471.785 476.138C472.032 475.543 472.394 475.002 472.85 474.546C473.306 474.091 473.847 473.73 474.443 473.484C475.038 473.238 475.677 473.112 476.321 473.113H626.661C627.305 473.112 627.944 473.238 628.539 473.484C629.135 473.73 629.677 474.091 630.133 474.546C630.589 475.002 630.95 475.543 631.197 476.138C631.444 476.733 631.571 477.371 631.571 478.016C631.571 478.66 631.444 479.298 631.197 479.894C630.95 480.489 630.589 481.03 630.133 481.485C629.677 481.941 629.135 482.302 628.539 482.548C627.944 482.794 627.305 482.92 626.661 482.919V482.919Z" fill="#3F3D56"/>
<path d="M566.661 502.293H476.321C475.021 502.293 473.774 501.777 472.854 500.857C471.935 499.938 471.418 498.691 471.418 497.39C471.418 496.09 471.935 494.842 472.854 493.923C473.774 493.003 475.021 492.487 476.321 492.487H566.661C567.962 492.487 569.209 493.003 570.128 493.923C571.048 494.842 571.564 496.09 571.564 497.39C571.564 498.691 571.048 499.938 570.128 500.857C569.209 501.777 567.962 502.293 566.661 502.293Z" fill="#3F3D56"/>
<path d="M541.49 521.668H476.321C475.021 521.668 473.774 521.151 472.854 520.232C471.935 519.312 471.418 518.065 471.418 516.765C471.418 515.464 471.935 514.217 472.854 513.297C473.774 512.378 475.021 511.861 476.321 511.861H541.49C542.79 511.861 544.038 512.378 544.957 513.297C545.877 514.217 546.393 515.464 546.393 516.765C546.393 518.065 545.877 519.312 544.957 520.232C544.038 521.151 542.79 521.668 541.49 521.668V521.668Z" fill="#3F3D56"/>
<path d="M42.5782 576.499C16.8639 564.314 -2.28933 539.799 0.698468 512.857C23.7676 531.537 55.1754 541.969 87.5988 541.719C100.227 541.622 114.371 540.337 123.548 547.423C129.258 551.832 131.834 558.834 132.159 565.811C132.484 572.789 130.793 579.852 129.111 586.822L129.622 588.473C99.4304 590.395 68.2924 588.684 42.5782 576.499Z" fill="#F2F2F2"/>
<path d="M1.3316 512.79C11.2769 532.196 28.5197 548.37 49.9486 557.837C54.6438 560.028 59.6431 561.497 64.7772 562.194C70.0056 562.741 75.2893 562.05 80.2016 560.178C84.8588 558.507 89.4496 556.33 94.3889 555.668C96.8071 555.331 99.2686 555.484 101.626 556.12C103.984 556.756 106.189 557.86 108.11 559.368C112.674 562.917 115.396 567.828 117.863 572.728C120.602 578.168 123.346 583.865 128.71 587.572C129.36 588.021 128.455 588.955 127.806 588.507C118.474 582.057 117.128 570.393 109.713 562.581C106.253 558.935 101.451 556.292 95.6863 556.717C90.6457 557.089 85.9099 559.33 81.2074 561.057C76.4262 562.945 71.2958 563.787 66.1618 563.526C60.9859 563.07 55.9176 561.781 51.1525 559.709C40.7916 555.397 31.2004 549.429 22.754 542.039C13.4224 533.969 5.71902 524.19 0.058174 513.228C-0.285366 512.558 0.990367 512.124 1.33166 512.79L1.3316 512.79Z" fill="white"/>
<path d="M42.7703 555.102C40.0633 558.296 36.4283 560.566 32.371 561.597C28.3136 562.629 24.0357 562.37 20.1323 560.856C19.3839 560.542 19.9951 559.445 20.7445 559.76C24.3762 561.175 28.36 561.416 32.1357 560.449C35.9114 559.482 39.289 557.356 41.7937 554.37C42.3196 553.73 43.2931 554.466 42.7702 555.102L42.7703 555.102Z" fill="white"/>
<path d="M77.94 561.294C77.4419 557.504 76.1467 553.862 74.1397 550.608C72.1326 547.354 69.4592 544.562 66.2955 542.416C65.6476 541.964 66.5524 541.03 67.1995 541.481C70.4869 543.72 73.2623 546.632 75.3428 550.022C77.4234 553.412 78.7617 557.205 79.2698 561.151C79.3618 561.903 78.0315 562.042 77.94 561.294L77.94 561.294Z" fill="white"/>
<path d="M14.9493 533.145C16.1858 532.194 17.1591 530.944 17.7768 529.512C18.3945 528.08 18.6361 526.514 18.4788 524.962C18.376 524.213 19.7064 524.074 19.8085 524.819C19.9746 526.533 19.706 528.262 19.0273 529.845C18.3487 531.428 17.282 532.815 15.9258 533.877C15.8035 533.997 15.6441 534.073 15.4733 534.091C15.3026 534.11 15.1307 534.07 14.9855 533.978C14.9226 533.93 14.8709 533.868 14.8343 533.797C14.7977 533.727 14.7769 533.649 14.7735 533.57C14.77 533.49 14.784 533.411 14.8143 533.338C14.8447 533.264 14.8908 533.198 14.9493 533.145V533.145Z" fill="white"/>
<path d="M85.5379 455.893C85.6172 456.358 85.6965 456.824 85.7858 457.293C86.8861 463.533 88.5672 469.656 90.8071 475.583C90.9718 476.045 91.1467 476.509 91.3264 476.964C96.991 491.314 105.605 504.316 116.611 515.128C121.094 519.545 125.93 523.59 131.071 527.222C138.236 532.292 146.506 537.246 151.041 544.078C151.522 544.782 151.952 545.52 152.329 546.285L131.9 587.62C131.802 587.697 131.715 587.778 131.617 587.855L130.883 589.533C130.599 589.361 130.309 589.177 130.025 589.006C129.86 588.907 129.699 588.799 129.534 588.7C129.425 588.631 129.316 588.562 129.213 588.506C129.177 588.483 129.141 588.46 129.115 588.44C129.012 588.384 128.924 588.322 128.831 588.269C127.207 587.246 125.589 586.211 123.977 585.163C123.967 585.16 123.967 585.16 123.962 585.147C111.707 577.135 100.182 568.08 90.7133 557.633C90.4285 557.319 90.1333 557.002 89.8579 556.668C85.649 551.974 81.8794 546.903 78.5966 541.52C76.8279 538.592 75.2299 535.565 73.8108 532.453C70.169 524.413 68.0111 515.781 67.4415 506.973C66.2876 489.33 71.5212 471.087 84.5327 456.964C84.8658 456.603 85.1946 456.251 85.5379 455.893Z" fill="#F2F2F2"/>
<path d="M86.0604 456.175C80.3698 477.997 82.3306 501.012 91.9655 520.595C93.9694 524.944 96.7299 528.902 100.118 532.285C103.748 535.611 108.21 537.894 113.031 538.891C117.649 539.984 122.56 540.613 126.706 542.715C128.74 543.733 130.504 545.218 131.855 547.049C133.205 548.881 134.102 551.005 134.474 553.25C135.489 558.721 134.202 564.354 132.732 569.84C131.1 575.931 129.299 582.243 130.805 588.279C130.987 589.01 129.677 589.315 129.495 588.584C126.875 578.082 133.763 567.463 133.5 556.839C133.377 551.882 131.571 547.051 126.967 544.304C122.942 541.901 117.879 541.249 113.189 540.179C108.451 539.258 104.01 537.192 100.254 534.161C96.6755 530.968 93.7384 527.123 91.5996 522.832C86.6971 513.376 83.5463 503.111 82.2994 492.533C80.8032 480.26 81.6554 467.814 84.8106 455.86C85.0072 455.106 86.2556 455.426 86.0604 456.175V456.175Z" fill="white"/>
<path d="M88.4425 514.405C80.0382 517.038 71.1224 513.888 67.5985 507.081C67.2513 506.41 68.4512 505.81 68.7989 506.481C72.1001 512.858 80.3509 515.719 88.2072 513.257C89.0339 512.998 89.2646 514.147 88.4426 514.405L88.4425 514.405Z" fill="white"/>
<path d="M110.582 538.619C112.734 535.372 114.203 531.722 114.902 527.89C115.6 524.058 115.512 520.125 114.644 516.328C114.464 515.596 115.774 515.291 115.953 516.022C116.848 519.976 116.931 524.071 116.195 528.057C115.46 532.044 113.922 535.84 111.675 539.214C111.235 539.901 110.144 539.302 110.582 538.619Z" fill="white"/>
<path d="M82.477 480.781C84.1271 480.595 85.7159 480.047 87.13 479.176C88.5441 478.305 89.7488 477.134 90.6583 475.744C91.0889 475.053 92.1787 475.653 91.751 476.339C90.7397 477.871 89.4075 479.164 87.8468 480.129C86.2861 481.094 84.5341 481.708 82.7124 481.929C82.3506 481.972 82.0132 481.845 81.9398 481.508C81.9197 481.341 81.9641 481.173 82.064 481.038C82.1638 480.903 82.3116 480.811 82.477 480.781V480.781Z" fill="white"/>
<path d="M146.81 179.199L181.581 216.12L262.513 245.787L272.238 227.72L209.958 194.603C209.958 194.603 181.879 165.267 165.222 159.224L146.81 179.199Z" fill="#A0616A"/>
<path d="M270.912 250.408C277.54 250.408 282.912 245.036 282.912 238.408C282.912 231.781 277.54 226.408 270.912 226.408C264.285 226.408 258.912 231.781 258.912 238.408C258.912 245.036 264.285 250.408 270.912 250.408Z" fill="#A0616A"/>
<path d="M173.791 161.276L148.938 183.22L148.821 183.25C137.266 186.2 120.578 172.571 108.613 160.618C104.671 156.674 102.374 151.38 102.185 145.806C101.997 140.233 103.932 134.796 107.599 130.594C110.326 127.513 113.859 125.256 117.801 124.078C121.742 122.9 125.935 122.848 129.904 123.928L150.105 129.501L173.791 161.276Z" fill="#3F3D56"/>
<path d="M201.586 597.14L218.714 597.139L226.862 531.074L201.583 531.075L201.586 597.14Z" fill="#A0616A"/>
<path d="M197.216 591.548L202.037 591.548L220.859 583.893L230.947 591.546H230.949C236.65 591.547 242.117 593.812 246.148 597.843C250.18 601.874 252.445 607.341 252.445 613.042V613.741L197.217 613.743L197.216 591.548Z" fill="#2F2E41"/>
<path d="M125.586 597.14L142.714 597.139L150.862 531.074L125.583 531.075L125.586 597.14Z" fill="#A0616A"/>
<path d="M121.216 591.548L126.037 591.548L144.859 583.893L154.947 591.546H154.949C160.65 591.547 166.117 593.812 170.148 597.843C174.18 601.874 176.445 607.341 176.445 613.042V613.741L121.217 613.743L121.216 591.548Z" fill="#2F2E41"/>
<path d="M99.4688 312.574C99.4688 312.574 97.4688 336.574 102.469 359.574C107.469 382.574 107.469 447.35 107.469 447.35L118.469 573.574L151.469 570.574L160.469 359.574L192.469 430.574L189.469 440.574L193.465 443.074C193.465 443.074 190.469 462.574 192.469 462.574C194.469 462.574 199.469 465.574 199.469 465.574L195.469 568.574L229.469 567.574L241.469 422.574L228.469 339.574L227.469 323.574L222.969 323.759L220.677 317.074L216.469 305.574L99.4688 312.574Z" fill="#2F2E41"/>
<path d="M97.7405 317.615L97.5623 317.365C88.0437 304.039 102.36 272.016 104.519 267.374L95.4246 264.423L97.4724 247.015L98.4426 239.255L91.4919 232.304L91.4724 232.131L87.4724 197.131L81.6565 173.884C79.4651 165.096 79.6519 155.883 82.1976 147.191C84.7433 138.499 89.5562 130.641 96.1423 124.424L109.586 111.748L125.924 87.574H152.27L161.304 104.637C170.062 106.662 177.833 111.694 183.262 118.859C188.691 126.023 191.435 134.865 191.016 143.844L188.968 188.597L196.984 244.318L196.988 254.402L206.008 264.426L204.039 274.274L210.904 277.216L213.935 291.361C215.189 293.016 223.469 304.056 223.469 307.074C223.469 307.527 223.134 307.965 222.417 308.451C216.774 312.272 185.587 320.061 171.783 314.538C157.08 308.659 98.633 317.478 98.0441 317.568L97.7405 317.615Z" fill="#3F3D56"/>
<path d="M313.804 613.382C313.804 613.538 313.774 613.692 313.715 613.836C313.656 613.98 313.569 614.111 313.459 614.222C313.349 614.332 313.219 614.42 313.075 614.48C312.931 614.54 312.777 614.571 312.621 614.572H32.3238C32.0082 614.572 31.7055 614.447 31.4823 614.223C31.2592 614 31.1338 613.697 31.1338 613.382C31.1338 613.066 31.2592 612.764 31.4823 612.54C31.7055 612.317 32.0082 612.192 32.3238 612.192H312.614C312.928 612.191 313.231 612.315 313.454 612.537C313.677 612.759 313.803 613.06 313.804 613.375V613.382Z" fill="#3F3D56"/>
<path d="M142.5 79.7704C161.771 79.7704 177.393 64.1483 177.393 44.8775C177.393 25.6067 161.771 9.98462 142.5 9.98462C123.229 9.98462 107.607 25.6067 107.607 44.8775C107.607 64.1483 123.229 79.7704 142.5 79.7704Z" fill="#A0616A"/>
<path d="M145.843 80.3351C140.439 80.2799 135.05 79.7633 129.734 78.7907C124.471 77.5783 112.86 68.5998 109.695 63.2956C107.344 59.3547 105.933 53.259 105.163 48.8396C104.123 42.9907 104.324 36.9888 105.751 31.2223C107.179 25.4558 109.801 20.0534 113.449 15.3649C114.855 13.4008 116.766 11.8532 118.98 10.886C119.176 10.8152 119.377 10.7532 119.58 10.7009C122.789 9.94465 125.698 8.24664 127.934 5.82489C128.369 5.3346 128.838 4.87622 129.338 4.45331C131.847 2.44443 134.796 1.05785 137.943 0.406924C143.028 -0.814266 150.302 0.71602 159.562 4.95917C164.215 7.09101 169.378 6.49627 173.358 5.73992C173.581 5.70278 173.81 5.7247 174.022 5.80352C174.234 5.88233 174.422 6.01529 174.567 6.18915C176.21 7.81346 178.407 8.75565 180.716 8.82636C182.129 8.92499 183.563 10.9221 185.291 13.5226C185.683 14.113 186.141 14.8019 186.473 15.2224L186.539 14.4328L187.316 15.3356C188.538 16.7546 189.381 18.4597 189.767 20.2921C190.153 22.1246 190.068 24.0249 189.522 25.816C188.975 27.6071 187.985 29.2308 186.642 30.5359C185.299 31.841 183.647 32.785 181.841 33.28C180.408 33.6219 178.944 33.8165 177.472 33.861C176.579 33.9182 175.656 33.9772 174.769 34.1076C171.921 34.6147 169.253 35.8516 167.026 37.6976C164.798 39.5437 163.087 41.9357 162.06 44.6403C161.818 45.2654 161.435 45.8263 160.941 46.2799C160.448 46.7334 159.856 47.0675 159.213 47.2562C158.57 47.445 157.892 47.4834 157.231 47.3684C156.571 47.2535 155.945 46.9884 155.404 46.5935C154.503 45.8536 153.436 45.3427 152.295 45.1043C151.153 44.8659 149.971 44.9071 148.849 45.2243C147.874 45.7343 147.103 46.5642 146.667 47.5749C146.139 48.6998 145.288 49.6421 144.223 50.2815C140.59 52.0373 140.132 60.2194 141.243 67.0788C142.314 73.6906 144.645 78.5139 146.911 78.8078C148.655 79.0339 148.851 79.1633 148.97 79.4758L149.076 79.7556L148.873 80.0095C148.675 80.236 147.52 80.3351 145.843 80.3351Z" fill="#2F2E41"/>
<path d="M317.016 344.879C351.141 344.879 378.805 317.215 378.805 283.09C378.805 248.964 351.141 221.301 317.016 221.301C282.891 221.301 255.227 248.964 255.227 283.09C255.227 317.215 282.891 344.879 317.016 344.879Z" fill="#B331BE"/>
<path d="M311.622 307.307C311.488 307.307 311.353 307.304 311.218 307.298C310.033 307.24 308.875 306.927 307.822 306.38C306.769 305.833 305.847 305.064 305.119 304.128L295.381 291.608C294.041 289.883 293.441 287.697 293.712 285.53C293.983 283.363 295.102 281.392 296.824 280.05L297.173 279.778C298.898 278.439 301.085 277.839 303.252 278.109C305.419 278.38 307.391 279.498 308.734 281.22C309.172 281.783 309.725 282.244 310.357 282.573C310.989 282.901 311.685 283.089 312.396 283.123C313.109 283.165 313.821 283.049 314.484 282.783C315.146 282.518 315.741 282.109 316.227 281.587L336 260.714C337.504 259.131 339.574 258.209 341.757 258.15C343.94 258.09 346.057 258.899 347.644 260.399L347.965 260.703C349.549 262.206 350.472 264.277 350.532 266.46C350.591 268.643 349.782 270.761 348.282 272.348L317.599 304.735C316.83 305.548 315.903 306.196 314.875 306.638C313.848 307.08 312.741 307.308 311.622 307.307V307.307Z" fill="white"/>
<path d="M153.88 180.482L178.119 225.032L248.846 274.304L262.846 259.304L211.035 211.438C211.035 211.438 191.34 175.926 176.766 165.846L153.88 180.482Z" fill="#A0616A"/>
<path d="M258.846 281.303C265.474 281.303 270.846 275.931 270.846 269.303C270.846 262.676 265.474 257.303 258.846 257.303C252.219 257.303 246.846 262.676 246.846 269.303C246.846 275.931 252.219 281.303 258.846 281.303Z" fill="#A0616A"/>
<path d="M156.062 186.421L140.819 149.838L146.332 129.621C147.429 125.656 149.613 122.077 152.637 119.288C155.661 116.499 159.405 114.611 163.446 113.839C168.93 112.828 174.594 113.937 179.291 116.943C183.989 119.948 187.37 124.625 188.751 130.029C192.926 146.418 196.132 167.725 187.7 176.157L187.614 176.242L156.062 186.421Z" fill="#3F3D56"/>
<path d="M496.025 113.195C495.971 113.195 495.915 113.194 495.859 113.191C495.372 113.168 494.895 113.039 494.462 112.814C494.029 112.589 493.65 112.273 493.35 111.887L489.344 106.737C488.793 106.027 488.546 105.128 488.658 104.236C488.769 103.345 489.229 102.534 489.938 101.982L490.081 101.87C490.791 101.319 491.691 101.072 492.582 101.183C493.474 101.295 494.285 101.755 494.838 102.463C495.017 102.695 495.245 102.884 495.505 103.019C495.765 103.155 496.051 103.232 496.344 103.246C496.637 103.263 496.93 103.215 497.203 103.106C497.475 102.997 497.72 102.829 497.92 102.614L506.055 94.027C506.673 93.3757 507.525 92.9962 508.423 92.9719C509.321 92.9476 510.192 93.2805 510.845 93.8974L510.977 94.0224C511.629 94.6409 512.008 95.4927 512.033 96.3909C512.057 97.289 511.724 98.1602 511.107 98.8132L498.484 112.137C498.168 112.472 497.787 112.738 497.364 112.92C496.941 113.102 496.486 113.195 496.025 113.195Z" fill="white"/>
<path d="M686.963 489.611C694.112 494.464 702.059 499.925 704.363 508.782C704.893 510.674 705.034 512.654 704.779 514.602C704.524 516.55 703.878 518.426 702.879 520.118C701.044 523.176 698.311 525.578 695.645 527.893C692.477 530.644 689.285 533.347 686.827 536.782C685.702 538.354 688.303 539.854 689.418 538.296C693.974 531.929 701.545 528.322 705.554 521.49C710.296 513.409 707.132 503.825 701.255 497.284C697.588 493.201 692.989 490.084 688.477 487.021C686.876 485.934 685.373 488.532 686.963 489.611L686.963 489.611Z" fill="#3F3D56"/>
<path d="M711.963 489.611C719.112 494.464 727.059 499.925 729.363 508.782C729.893 510.674 730.034 512.654 729.779 514.602C729.524 516.55 728.878 518.426 727.879 520.118C726.044 523.176 723.311 525.578 720.645 527.893C717.477 530.644 714.285 533.347 711.827 536.782C710.702 538.354 713.303 539.854 714.418 538.296C718.974 531.929 726.545 528.322 730.554 521.49C735.296 513.409 732.132 503.825 726.255 497.284C722.588 493.201 717.989 490.084 713.477 487.021C711.876 485.934 710.373 488.532 711.963 489.611L711.963 489.611Z" fill="#3F3D56"/>
<path d="M473.994 269.765C475.584 268.686 474.081 266.088 472.48 267.175C467.968 270.238 463.369 273.355 459.702 277.438C453.825 283.979 450.661 293.563 455.403 301.644C459.412 308.476 466.983 312.083 471.539 318.45C472.654 320.008 475.255 318.508 474.13 316.936C471.672 313.501 468.48 310.798 465.312 308.047C462.646 305.732 459.913 303.33 458.078 300.272C457.079 298.58 456.433 296.704 456.178 294.756C455.923 292.808 456.064 290.828 456.594 288.936C458.898 280.079 466.845 274.618 473.994 269.765L473.994 269.765Z" fill="#3F3D56"/>
<path d="M448.994 269.765C450.584 268.686 449.081 266.088 447.48 267.175C442.968 270.238 438.369 273.355 434.702 277.438C428.825 283.979 425.661 293.563 430.403 301.644C434.412 308.476 441.983 312.083 446.539 318.45C447.654 320.008 450.255 318.508 449.13 316.936C446.672 313.501 443.48 310.798 440.312 308.047C437.646 305.732 434.913 303.33 433.078 300.272C432.079 298.58 431.433 296.704 431.178 294.756C430.923 292.808 431.064 290.828 431.594 288.936C433.898 280.079 441.845 274.618 448.994 269.765L448.994 269.765Z" fill="#3F3D56"/>
</g>
<defs>
<clipPath id="clip0_302_2">
<rect width="732.853" height="614.572" fill="white"/>
</clipPath>
</defs>
</svg>
