<svg width="24" height="24" viewBox="0 0 24 24" fill="none" xmlns="http://www.w3.org/2000/svg">
<path d="M12 2C10.0222 2 8.08879 2.58649 6.4443 3.6853C4.79981 4.78412 3.51809 6.3459 2.76121 8.17317C2.00433 10.0004 1.8063 12.0111 2.19215 13.9509C2.578 15.8907 3.53041 17.6725 4.92894 19.0711C6.32746 20.4696 8.10929 21.422 10.0491 21.8079C11.9889 22.1937 13.9996 21.9957 15.8268 21.2388C17.6541 20.4819 19.2159 19.2002 20.3147 17.5557C21.4135 15.9112 22 13.9778 22 12C22 10.6868 21.7413 9.38642 21.2388 8.17317C20.7363 6.95991 19.9997 5.85752 19.0711 4.92893C18.1425 4.00035 17.0401 3.26375 15.8268 2.7612C14.6136 2.25866 13.3132 2 12 2V2ZM16.71 9.71L11.71 14.71C11.617 14.8037 11.5064 14.8781 11.3846 14.9289C11.2627 14.9797 11.132 15.0058 11 15.0058C10.868 15.0058 10.7373 14.9797 10.6154 14.9289C10.4936 14.8781 10.383 14.8037 10.29 14.71L8.29 12.71C8.1017 12.5217 7.99591 12.2663 7.99591 12C7.99591 11.7337 8.1017 11.4783 8.29 11.29C8.47831 11.1017 8.7337 10.9959 9 10.9959C9.26631 10.9959 9.5217 11.1017 9.71 11.29L11 12.59L15.29 8.29C15.4783 8.1017 15.7337 7.99591 16 7.99591C16.2663 7.99591 16.5217 8.1017 16.71 8.29C16.8983 8.4783 17.0041 8.7337 17.0041 9C17.0041 9.2663 16.8983 9.5217 16.71 9.71V9.71Z" fill="black"/>
</svg>
