<svg width="24" height="24" viewBox="0 0 24 24" fill="none" xmlns="http://www.w3.org/2000/svg">
<path d="M20.21 15.32C19.6262 16.7062 18.6875 17.9142 17.4883 18.8221C16.2891 19.7301 14.8719 20.3061 13.3792 20.492C11.8866 20.678 10.3714 20.4673 8.9861 19.8813C7.60081 19.2953 6.39438 18.3546 5.48833 17.154C4.58227 15.9534 4.00857 14.5352 3.82502 13.0423C3.64146 11.5494 3.85452 10.0345 4.44274 8.65014C5.03096 7.26579 5.97357 6.06087 7.17565 5.15673C8.37772 4.2526 9.79681 3.68117 11.29 3.5C11.3936 3.48763 11.4985 3.50797 11.5899 3.55818C11.6814 3.60839 11.7548 3.68595 11.8 3.78C11.8472 3.87231 11.864 3.97723 11.8478 4.07965C11.8316 4.18208 11.7834 4.27674 11.71 4.35C11.097 4.9581 10.6122 5.68291 10.2841 6.48159C9.95608 7.28027 9.79146 8.13661 9.8 9C9.80881 10.1349 10.1114 11.2481 10.6784 12.2312C11.2453 13.2143 12.0573 14.0338 13.0351 14.6098C14.013 15.1859 15.1233 15.4988 16.258 15.5181C17.3928 15.5374 18.5131 15.2624 19.51 14.72C19.6026 14.6722 19.7073 14.6534 19.8108 14.6659C19.9142 14.6783 20.0115 14.7216 20.09 14.79C20.1569 14.8587 20.2036 14.9445 20.2247 15.0381C20.2459 15.1316 20.2408 15.2292 20.21 15.32V15.32Z" fill="black"/>
</svg>
