<svg width="24" height="24" viewBox="0 0 24 24" fill="none" xmlns="http://www.w3.org/2000/svg">
<path d="M17 22H5C4.20435 22 3.44129 21.6839 2.87868 21.1213C2.31607 20.5587 2 19.7956 2 19V7C2 6.20435 2.31607 5.44129 2.87868 4.87868C3.44129 4.31607 4.20435 4 5 4H9C9.26522 4 9.51957 4.10536 9.70711 4.29289C9.89464 4.48043 10 4.73478 10 5C10 5.26522 9.89464 5.51957 9.70711 5.70711C9.51957 5.89464 9.26522 6 9 6H5C4.73478 6 4.48043 6.10536 4.29289 6.29289C4.10536 6.48043 4 6.73478 4 7V19C4 19.2652 4.10536 19.5196 4.29289 19.7071C4.48043 19.8946 4.73478 20 5 20H17C17.2652 20 17.5196 19.8946 17.7071 19.7071C17.8946 19.5196 18 19.2652 18 19V15C18 14.7348 18.1054 14.4804 18.2929 14.2929C18.4804 14.1054 18.7348 14 19 14C19.2652 14 19.5196 14.1054 19.7071 14.2929C19.8946 14.4804 20 14.7348 20 15V19C20 19.7956 19.6839 20.5587 19.1213 21.1213C18.5587 21.6839 17.7956 22 17 22Z" fill="black"/>
<path d="M14.6 5.87L9.64999 10.87C9.58247 10.9302 9.53676 11.0111 9.52 11.1L8.52 14.92C8.49577 15.0043 8.49507 15.0935 8.51799 15.1781C8.54091 15.2628 8.58656 15.3395 8.64999 15.4C8.69875 15.4391 8.75482 15.4681 8.81492 15.4853C8.87502 15.5024 8.93794 15.5074 9 15.5C9.04287 15.5089 9.08712 15.5089 9.13 15.5L12.95 14.5C13.0389 14.4832 13.1198 14.4375 13.18 14.37L18.13 9.4L14.6 5.87Z" fill="black"/>
<path d="M21 4.45L19.55 3C19.2658 2.72089 18.8833 2.56452 18.485 2.56452C18.0867 2.56452 17.7042 2.72089 17.42 3L16 4.45L19.55 8L21 6.58C21.2791 6.29578 21.4355 5.91335 21.4355 5.515C21.4355 5.11665 21.2791 4.73422 21 4.45V4.45Z" fill="black"/>
</svg>
