<svg width="24" height="24" viewBox="0 0 24 24" fill="none" xmlns="http://www.w3.org/2000/svg">
<path d="M12 17C14.7614 17 17 14.7614 17 12C17 9.23858 14.7614 7 12 7C9.23858 7 7 9.23858 7 12C7 14.7614 9.23858 17 12 17Z" fill="black"/>
<path d="M21 13H20C19.7348 13 19.4804 12.8946 19.2929 12.7071C19.1054 12.5196 19 12.2652 19 12C19 11.7348 19.1054 11.4804 19.2929 11.2929C19.4804 11.1054 19.7348 11 20 11H21C21.2652 11 21.5196 11.1054 21.7071 11.2929C21.8946 11.4804 22 11.7348 22 12C22 12.2652 21.8946 12.5196 21.7071 12.7071C21.5196 12.8946 21.2652 13 21 13Z" fill="black"/>
<path d="M4 13H3C2.73478 13 2.48043 12.8946 2.29289 12.7071C2.10536 12.5196 2 12.2652 2 12C2 11.7348 2.10536 11.4804 2.29289 11.2929C2.48043 11.1054 2.73478 11 3 11H4C4.26522 11 4.51957 11.1054 4.70711 11.2929C4.89464 11.4804 5 11.7348 5 12C5 12.2652 4.89464 12.5196 4.70711 12.7071C4.51957 12.8946 4.26522 13 4 13Z" fill="black"/>
<path d="M17.66 7.34C17.4116 7.32875 17.1763 7.22536 17 7.05C16.8137 6.86264 16.7092 6.60918 16.7092 6.345C16.7092 6.08081 16.8137 5.82736 17 5.64L17.71 4.93C17.7996 4.82532 17.91 4.7403 18.034 4.68027C18.1581 4.62025 18.2932 4.58652 18.4309 4.5812C18.5687 4.57588 18.706 4.59909 18.8343 4.64936C18.9626 4.69964 19.0792 4.77589 19.1766 4.87335C19.2741 4.9708 19.3504 5.08735 19.4006 5.21568C19.4509 5.344 19.4741 5.48133 19.4688 5.61905C19.4635 5.75677 19.4297 5.8919 19.3697 6.01597C19.3097 6.14003 19.2247 6.25035 19.12 6.34L18.41 7.05C18.3119 7.14761 18.1945 7.22379 18.0654 7.27371C17.9363 7.32362 17.7983 7.3462 17.66 7.34V7.34Z" fill="black"/>
<path d="M5.64 19.36C5.50839 19.3608 5.37793 19.3355 5.25609 19.2858C5.13425 19.236 5.02344 19.1627 4.93 19.07C4.74375 18.8826 4.63921 18.6292 4.63921 18.365C4.63921 18.1008 4.74375 17.8474 4.93 17.66L5.64 17C5.8313 16.8362 6.07738 16.7506 6.32905 16.7603C6.58073 16.77 6.81947 16.8743 6.99756 17.0524C7.17566 17.2305 7.27999 17.4693 7.28971 17.7209C7.29943 17.9726 7.21383 18.2187 7.05 18.41L6.34 19.12C6.14594 19.2866 5.89544 19.3725 5.64 19.36V19.36Z" fill="black"/>
<path d="M12 5C11.7348 5 11.4804 4.89464 11.2929 4.70711C11.1054 4.51957 11 4.26522 11 4V3C11 2.73478 11.1054 2.48043 11.2929 2.29289C11.4804 2.10536 11.7348 2 12 2C12.2652 2 12.5196 2.10536 12.7071 2.29289C12.8946 2.48043 13 2.73478 13 3V4C13 4.26522 12.8946 4.51957 12.7071 4.70711C12.5196 4.89464 12.2652 5 12 5Z" fill="black"/>
<path d="M12 22C11.7348 22 11.4804 21.8946 11.2929 21.7071C11.1054 21.5196 11 21.2652 11 21V20C11 19.7348 11.1054 19.4804 11.2929 19.2929C11.4804 19.1054 11.7348 19 12 19C12.2652 19 12.5196 19.1054 12.7071 19.2929C12.8946 19.4804 13 19.7348 13 20V21C13 21.2652 12.8946 21.5196 12.7071 21.7071C12.5196 21.8946 12.2652 22 12 22Z" fill="black"/>
<path d="M6.34 7.34C6.07766 7.3389 5.82626 7.23474 5.64 7.05L4.93 6.34C4.76618 6.1487 4.68057 5.90262 4.69029 5.65095C4.70001 5.39927 4.80434 5.16053 4.98244 4.98244C5.16053 4.80434 5.39927 4.70001 5.65095 4.69029C5.90262 4.68057 6.1487 4.76617 6.34 4.93L7.05 5.64C7.23625 5.82736 7.34079 6.08081 7.34079 6.345C7.34079 6.60919 7.23625 6.86264 7.05 7.05C6.95656 7.14268 6.84575 7.21601 6.72391 7.26577C6.60207 7.31554 6.47161 7.34076 6.34 7.34Z" fill="black"/>
<path d="M18.36 19.36C18.0977 19.3589 17.8463 19.2547 17.66 19.07L17 18.36C16.8943 18.17 16.8534 17.9508 16.8835 17.7355C16.9136 17.5202 17.0131 17.3205 17.1668 17.1668C17.3205 17.0131 17.5202 16.9136 17.7355 16.8835C17.9508 16.8534 18.17 16.8943 18.36 17L19.07 17.71C19.2562 17.8974 19.3608 18.1508 19.3608 18.415C19.3608 18.6792 19.2562 18.9326 19.07 19.12C18.8734 19.289 18.6188 19.3751 18.36 19.36Z" fill="black"/>
</svg>
