<svg width="24" height="24" viewBox="0 0 24 24" fill="none" xmlns="http://www.w3.org/2000/svg">
<path d="M20.56 18.44L15.89 13.77C16.8208 12.3165 17.1817 10.5704 16.9036 8.86695C16.6254 7.16353 15.7277 5.62294 14.3829 4.54103C13.0381 3.45912 11.341 2.91219 9.61757 3.00527C7.8941 3.09835 6.26578 3.82489 5.04533 5.04534C3.82488 6.26579 3.09835 7.89411 3.00527 9.61758C2.91218 11.341 3.45912 13.0381 4.54102 14.3829C5.62293 15.7277 7.16353 16.6254 8.86694 16.9036C10.5704 17.1817 12.3165 16.8208 13.77 15.89L18.44 20.56C18.7212 20.8409 19.1025 20.9987 19.5 20.9987C19.8975 20.9987 20.2787 20.8409 20.56 20.56C20.7003 20.4214 20.8117 20.2564 20.8877 20.0744C20.9637 19.8924 21.0029 19.6972 21.0029 19.5C21.0029 19.3028 20.9637 19.1076 20.8877 18.9256C20.8117 18.7436 20.7003 18.5786 20.56 18.44ZM4.99999 10C4.99999 9.01109 5.29324 8.0444 5.84264 7.22215C6.39205 6.3999 7.17295 5.75904 8.08658 5.3806C9.00021 5.00216 10.0055 4.90315 10.9754 5.09607C11.9453 5.289 12.8363 5.7652 13.5355 6.46447C14.2348 7.16373 14.711 8.05464 14.9039 9.02455C15.0968 9.99445 14.9978 10.9998 14.6194 11.9134C14.241 12.827 13.6001 13.6079 12.7778 14.1573C11.9556 14.7068 10.9889 15 9.99999 15C8.67391 15 7.40214 14.4732 6.46446 13.5355C5.52678 12.5979 4.99999 11.3261 4.99999 10Z" fill="black"/>
</svg>
