<svg width="24" height="24" viewBox="0 0 24 24" fill="none" xmlns="http://www.w3.org/2000/svg">
<path d="M12 22C10.0222 22 8.08879 21.4135 6.44429 20.3147C4.7998 19.2159 3.51808 17.6541 2.7612 15.8268C2.00433 13.9996 1.80629 11.9889 2.19214 10.0491C2.578 8.10929 3.5304 6.32746 4.92893 4.92893C6.32745 3.53041 8.10928 2.578 10.0491 2.19215C11.9889 1.8063 13.9996 2.00433 15.8268 2.76121C17.6541 3.51808 19.2159 4.79981 20.3147 6.4443C21.4135 8.08879 22 10.0222 22 12C22 14.6522 20.9464 17.1957 19.0711 19.0711C17.1957 20.9464 14.6522 22 12 22V22ZM12 4C10.4177 4 8.87103 4.46919 7.55543 5.34824C6.23984 6.2273 5.21446 7.47672 4.60896 8.93853C4.00346 10.4003 3.84503 12.0089 4.15371 13.5607C4.4624 15.1126 5.22432 16.538 6.34314 17.6569C7.46196 18.7757 8.88743 19.5376 10.4393 19.8463C11.9911 20.155 13.5997 19.9965 15.0615 19.391C16.5233 18.7855 17.7727 17.7602 18.6518 16.4446C19.5308 15.129 20 13.5823 20 12C20 9.87827 19.1571 7.84344 17.6569 6.34315C16.1566 4.84286 14.1217 4 12 4V4Z" fill="black"/>
</svg>
